<svg width="23" height="26" viewBox="0 0 23 26" fill="none" xmlns="http://www.w3.org/2000/svg">
<path d="M10.5428 14.2901H15.9431M7.30261 14.2901H7.31231M12.7029 18.8836H7.30261M15.9431 18.8836H15.9334" stroke="#F0F4EF" stroke-width="1.62009" stroke-linecap="round" stroke-linejoin="round"/>
<path d="M18.1033 1.65784V3.95461M5.14258 1.65784V3.95461" stroke="#F0F4EF" stroke-width="1.62009" stroke-linecap="round" stroke-linejoin="round"/>
<path d="M1.3623 13.421C1.3623 8.41712 1.3623 5.91519 2.71467 4.36069C4.06703 2.80618 6.24362 2.80618 10.5968 2.80618H12.6489C17.0021 2.80618 19.1787 2.80618 20.5311 4.36069C21.8834 5.91519 21.8834 8.41712 21.8834 13.421V14.0107C21.8834 19.0146 21.8834 21.5165 20.5311 23.071C19.1787 24.6255 17.0021 24.6255 12.6489 24.6255H10.5968C6.24362 24.6255 4.06703 24.6255 2.71467 23.071C1.3623 21.5165 1.3623 19.0146 1.3623 14.0107V13.421Z" stroke="#F0F4EF" stroke-width="1.62009" stroke-linecap="round" stroke-linejoin="round"/>
<path d="M1.90234 8.5481H21.3434" stroke="#F0F4EF" stroke-width="1.62009" stroke-linecap="round" stroke-linejoin="round"/>
</svg>
