<svg width="758" height="631" viewBox="0 0 758 631" fill="none" xmlns="http://www.w3.org/2000/svg">
<path d="M616.917 458.626L599.871 484.787C576.667 468.944 552.935 451.289 531.753 432.236C533.063 431.388 534.349 430.516 535.613 429.622C597.022 386.609 621.512 314.27 595.184 253.671C579.332 217.193 543.01 180.622 497.361 180.622H496.488C470.735 180.897 446.865 191.651 427.452 211.736C402.617 237.415 387.133 277.31 388.052 313.376C388.672 338.162 394.507 362.42 405.696 386.402C381.895 382.963 353.177 374.48 319.015 357.903C298.04 347.746 278.558 335.043 261.052 320.346C292.848 283.799 322.852 244.959 345.159 200.547C365.147 160.766 368.96 119.45 355.911 84.2323C343.827 51.5367 318.349 26.2699 282.28 11.1144C251.104 -1.97761 217.195 -3.55965 186.801 6.66631C154.913 17.3738 129.067 40.3478 113.996 71.3466C98.6268 102.942 94.6294 140.567 102.05 183.213C107.656 215.313 120.107 250.026 137.085 280.91C144.85 295.034 153.741 308.607 163.643 321.516L158.726 326.881C108.161 382.138 52.5642 433.428 0 480.614L0.666242 481.348L34.6906 519.111C39.1705 523.926 43.6733 528.718 48.1532 533.532L138.946 631C180.184 592.733 182.55 528.328 144.184 487.149L123.163 464.587C153.167 436.111 183.056 406.304 211.635 375.076L213.106 373.471C235.597 392.639 260.685 409.101 287.679 422.216C349.341 452.115 406.89 464.358 456.376 458.764C463.268 466.101 470.666 473.438 478.615 480.798C525.068 523.788 579.998 558.043 624.154 585.579L632.953 591.082C637.134 593.696 641.339 596.287 645.589 598.832L645.658 598.717L646.783 599.451L758 428.82C710.789 398.165 647.633 411.509 616.917 458.626ZM212.508 267.016C207.96 260.366 203.755 253.534 199.896 246.518C164.079 181.379 165.94 128.254 178.438 102.552C188.179 82.5356 206.834 71.4384 228.016 71.4384C236.585 71.4384 245.545 73.2497 254.505 77.0099C272.08 84.3928 283.589 95.169 288.736 109.018C294.824 125.48 292.113 146.597 281.131 168.493C263.533 203.527 239.066 235.948 212.508 267.016ZM494.467 371.109C491.572 373.15 487.781 375.466 483.049 377.713C469.035 356.596 460.236 334.447 459.661 311.588C459.225 294.529 467.358 273.412 478.982 261.375C487.85 252.204 494.903 252.135 497.224 252.112H497.338C507.516 252.112 522.495 266.098 529.479 282.125C544.228 316.082 521.668 352.056 494.467 371.109Z" fill="#3746B3"/>
</svg>
