<svg width="385" height="83" viewBox="0 0 385 83" fill="none" xmlns="http://www.w3.org/2000/svg">
<path d="M15 44.0612C40.9207 44.0612 39.8839 3.99994 85.5043 4C162.748 4.0001 115.572 54.8092 189.705 54.8092C262.772 54.8092 236.363 3.99998 282.501 4C335.938 4.00002 338.49 55.7862 381 38.1985" stroke="#25E38C" stroke-opacity="0.2" stroke-width="8" stroke-linecap="round"/>
<path d="M27.654 43.0245C27.654 49.4888 22.0553 54.9395 14.8817 54.9395C7.70813 54.9395 2.10944 49.4888 2.10944 43.0245C2.10944 36.5601 7.70813 31.1094 14.8817 31.1094C22.0553 31.1094 27.654 36.5601 27.654 43.0245Z" fill="#25E38C" stroke="#0F1334" stroke-width="4.21888"/>
<path d="M7.97754 74.9072C7.97754 76.7347 7.69043 78.0768 7.11621 78.9336C6.54655 79.7858 5.66016 80.2119 4.45703 80.2119C3.23568 80.2119 2.34245 79.779 1.77734 78.9131C1.2168 78.0472 0.936523 76.7165 0.936523 74.9209C0.936523 73.1117 1.22135 71.7764 1.79102 70.915C2.36068 70.0492 3.24935 69.6162 4.45703 69.6162C5.67839 69.6162 6.56934 70.056 7.12988 70.9355C7.69499 71.8105 7.97754 73.1344 7.97754 74.9072ZM6.17969 78.0107C6.33919 77.6416 6.44629 77.2087 6.50098 76.7119C6.56022 76.2106 6.58984 75.609 6.58984 74.9072C6.58984 74.2145 6.56022 73.613 6.50098 73.1025C6.44629 72.5921 6.33691 72.1592 6.17285 71.8037C6.01335 71.4528 5.7946 71.1885 5.5166 71.0107C5.24316 70.833 4.88997 70.7441 4.45703 70.7441C4.02865 70.7441 3.67318 70.833 3.39062 71.0107C3.11263 71.1885 2.8916 71.4574 2.72754 71.8174C2.57259 72.1546 2.46549 72.5944 2.40625 73.1367C2.35156 73.679 2.32422 74.2738 2.32422 74.9209C2.32422 75.6318 2.34928 76.2266 2.39941 76.7051C2.44954 77.1836 2.55664 77.612 2.7207 77.9902C2.87109 78.3457 3.08301 78.6169 3.35645 78.8037C3.63444 78.9906 4.0013 79.084 4.45703 79.084C4.88542 79.084 5.24089 78.9951 5.52344 78.8174C5.80599 78.6396 6.02474 78.3708 6.17969 78.0107ZM16.8779 74.9072C16.8779 76.7347 16.5908 78.0768 16.0166 78.9336C15.4469 79.7858 14.5605 80.2119 13.3574 80.2119C12.1361 80.2119 11.2428 79.779 10.6777 78.9131C10.1172 78.0472 9.83691 76.7165 9.83691 74.9209C9.83691 73.1117 10.1217 71.7764 10.6914 70.915C11.2611 70.0492 12.1497 69.6162 13.3574 69.6162C14.5788 69.6162 15.4697 70.056 16.0303 70.9355C16.5954 71.8105 16.8779 73.1344 16.8779 74.9072ZM15.0801 78.0107C15.2396 77.6416 15.3467 77.2087 15.4014 76.7119C15.4606 76.2106 15.4902 75.609 15.4902 74.9072C15.4902 74.2145 15.4606 73.613 15.4014 73.1025C15.3467 72.5921 15.2373 72.1592 15.0732 71.8037C14.9137 71.4528 14.695 71.1885 14.417 71.0107C14.1436 70.833 13.7904 70.7441 13.3574 70.7441C12.929 70.7441 12.5736 70.833 12.291 71.0107C12.013 71.1885 11.792 71.4574 11.6279 71.8174C11.473 72.1546 11.3659 72.5944 11.3066 73.1367C11.252 73.679 11.2246 74.2738 11.2246 74.9209C11.2246 75.6318 11.2497 76.2266 11.2998 76.7051C11.3499 77.1836 11.457 77.612 11.6211 77.9902C11.7715 78.3457 11.9834 78.6169 12.2568 78.8037C12.5348 78.9906 12.9017 79.084 13.3574 79.084C13.7858 79.084 14.1413 78.9951 14.4238 78.8174C14.7064 78.6396 14.9251 78.3708 15.0801 78.0107ZM21.7998 74.3125H20.166V72.3643H21.7998V74.3125ZM21.7998 80H20.166V78.0518H21.7998V80ZM32.1357 74.9072C32.1357 76.7347 31.8486 78.0768 31.2744 78.9336C30.7048 79.7858 29.8184 80.2119 28.6152 80.2119C27.3939 80.2119 26.5007 79.779 25.9355 78.9131C25.375 78.0472 25.0947 76.7165 25.0947 74.9209C25.0947 73.1117 25.3796 71.7764 25.9492 70.915C26.5189 70.0492 27.4076 69.6162 28.6152 69.6162C29.8366 69.6162 30.7275 70.056 31.2881 70.9355C31.8532 71.8105 32.1357 73.1344 32.1357 74.9072ZM30.3379 78.0107C30.4974 77.6416 30.6045 77.2087 30.6592 76.7119C30.7184 76.2106 30.748 75.609 30.748 74.9072C30.748 74.2145 30.7184 73.613 30.6592 73.1025C30.6045 72.5921 30.4951 72.1592 30.3311 71.8037C30.1715 71.4528 29.9528 71.1885 29.6748 71.0107C29.4014 70.833 29.0482 70.7441 28.6152 70.7441C28.1868 70.7441 27.8314 70.833 27.5488 71.0107C27.2708 71.1885 27.0498 71.4574 26.8857 71.8174C26.7308 72.1546 26.6237 72.5944 26.5645 73.1367C26.5098 73.679 26.4824 74.2738 26.4824 74.9209C26.4824 75.6318 26.5075 76.2266 26.5576 76.7051C26.6077 77.1836 26.7148 77.612 26.8789 77.9902C27.0293 78.3457 27.2412 78.6169 27.5146 78.8037C27.7926 78.9906 28.1595 79.084 28.6152 79.084C29.0436 79.084 29.3991 78.9951 29.6816 78.8174C29.9642 78.6396 30.1829 78.3708 30.3379 78.0107ZM41.0361 74.9072C41.0361 76.7347 40.749 78.0768 40.1748 78.9336C39.6051 79.7858 38.7188 80.2119 37.5156 80.2119C36.2943 80.2119 35.401 79.779 34.8359 78.9131C34.2754 78.0472 33.9951 76.7165 33.9951 74.9209C33.9951 73.1117 34.2799 71.7764 34.8496 70.915C35.4193 70.0492 36.3079 69.6162 37.5156 69.6162C38.737 69.6162 39.6279 70.056 40.1885 70.9355C40.7536 71.8105 41.0361 73.1344 41.0361 74.9072ZM39.2383 78.0107C39.3978 77.6416 39.5049 77.2087 39.5596 76.7119C39.6188 76.2106 39.6484 75.609 39.6484 74.9072C39.6484 74.2145 39.6188 73.613 39.5596 73.1025C39.5049 72.5921 39.3955 72.1592 39.2314 71.8037C39.0719 71.4528 38.8532 71.1885 38.5752 71.0107C38.3018 70.833 37.9486 70.7441 37.5156 70.7441C37.0872 70.7441 36.7318 70.833 36.4492 71.0107C36.1712 71.1885 35.9502 71.4574 35.7861 71.8174C35.6312 72.1546 35.5241 72.5944 35.4648 73.1367C35.4102 73.679 35.3828 74.2738 35.3828 74.9209C35.3828 75.6318 35.4079 76.2266 35.458 76.7051C35.5081 77.1836 35.6152 77.612 35.7793 77.9902C35.9297 78.3457 36.1416 78.6169 36.415 78.8037C36.693 78.9906 37.0599 79.084 37.5156 79.084C37.944 79.084 38.2995 78.9951 38.582 78.8174C38.8646 78.6396 39.0833 78.3708 39.2383 78.0107Z" fill="#F0F4EF"/>
<path d="M331.096 75.0986C331.314 75.2946 331.494 75.5407 331.636 75.8369C331.777 76.1331 331.848 76.516 331.848 76.9854C331.848 77.4502 331.763 77.8763 331.595 78.2637C331.426 78.651 331.189 78.9883 330.884 79.2754C330.542 79.5944 330.139 79.8314 329.674 79.9863C329.214 80.1367 328.708 80.2119 328.156 80.2119C327.591 80.2119 327.035 80.1436 326.488 80.0068C325.941 79.8747 325.493 79.7288 325.142 79.5693V78.1406H325.244C325.632 78.3958 326.087 78.6077 326.611 78.7764C327.135 78.945 327.641 79.0293 328.129 79.0293C328.416 79.0293 328.721 78.9814 329.045 78.8857C329.368 78.79 329.631 78.6488 329.831 78.4619C330.041 78.2614 330.196 78.0404 330.296 77.7988C330.401 77.5573 330.453 77.252 330.453 76.8828C330.453 76.5182 330.394 76.2174 330.275 75.9805C330.161 75.7389 330.002 75.5498 329.797 75.4131C329.592 75.2718 329.343 75.1761 329.052 75.126C328.76 75.0713 328.446 75.0439 328.108 75.0439H327.493V73.9092H327.972C328.664 73.9092 329.216 73.7656 329.626 73.4785C330.041 73.1868 330.248 72.763 330.248 72.207C330.248 71.9609 330.196 71.7467 330.091 71.5645C329.986 71.3776 329.84 71.2249 329.653 71.1064C329.457 70.988 329.248 70.9059 329.024 70.8604C328.801 70.8148 328.548 70.792 328.266 70.792C327.833 70.792 327.372 70.8695 326.885 71.0244C326.397 71.1794 325.937 71.3981 325.504 71.6807H325.436V70.252C325.759 70.0924 326.19 69.9466 326.728 69.8145C327.27 69.6777 327.794 69.6094 328.3 69.6094C328.797 69.6094 329.234 69.6549 329.612 69.7461C329.991 69.8372 330.332 69.9831 330.638 70.1836C330.966 70.4023 331.214 70.6667 331.383 70.9766C331.551 71.2865 331.636 71.6488 331.636 72.0635C331.636 72.6286 331.435 73.123 331.034 73.5469C330.638 73.9661 330.168 74.2305 329.626 74.3398V74.4355C329.845 74.472 330.095 74.5495 330.378 74.668C330.66 74.7819 330.9 74.9255 331.096 75.0986ZM341.042 76.6982C341.042 77.7327 340.7 78.5781 340.017 79.2344C339.338 79.8861 338.504 80.2119 337.515 80.2119C337.013 80.2119 336.558 80.1344 336.147 79.9795C335.737 79.8245 335.375 79.5944 335.061 79.2891C334.669 78.9108 334.366 78.4095 334.151 77.7852C333.942 77.1608 333.837 76.4089 333.837 75.5293C333.837 74.627 333.933 73.8271 334.124 73.1299C334.32 72.4326 334.63 71.8128 335.054 71.2705C335.455 70.7555 335.972 70.3545 336.605 70.0674C337.239 69.7757 337.977 69.6299 338.82 69.6299C339.089 69.6299 339.315 69.6413 339.497 69.6641C339.679 69.6868 339.864 69.7279 340.051 69.7871V71.0928H339.982C339.855 71.0244 339.661 70.9606 339.401 70.9014C339.146 70.8376 338.884 70.8057 338.615 70.8057C337.635 70.8057 336.854 71.1133 336.271 71.7285C335.687 72.3392 335.348 73.1663 335.252 74.21C335.635 73.9775 336.011 73.8021 336.38 73.6836C336.754 73.5605 337.184 73.499 337.672 73.499C338.105 73.499 338.485 73.54 338.813 73.6221C339.146 73.6995 339.486 73.859 339.832 74.1006C340.233 74.3786 340.534 74.7295 340.734 75.1533C340.939 75.5771 341.042 76.0921 341.042 76.6982ZM339.654 76.7529C339.654 76.3291 339.59 75.9782 339.463 75.7002C339.34 75.4222 339.135 75.1807 338.848 74.9756C338.638 74.8298 338.406 74.734 338.15 74.6885C337.895 74.6429 337.629 74.6201 337.351 74.6201C336.963 74.6201 336.603 74.6657 336.271 74.7568C335.938 74.848 335.596 74.9893 335.245 75.1807C335.236 75.2809 335.229 75.3789 335.225 75.4746C335.22 75.5658 335.218 75.682 335.218 75.8232C335.218 76.5433 335.291 77.113 335.437 77.5322C335.587 77.9469 335.792 78.2751 336.052 78.5166C336.261 78.7171 336.487 78.8652 336.729 78.9609C336.975 79.0521 337.241 79.0977 337.528 79.0977C338.189 79.0977 338.709 78.8971 339.087 78.4961C339.465 78.0905 339.654 77.5094 339.654 76.7529ZM345.8 74.3125H344.166V72.3643H345.8V74.3125ZM345.8 80H344.166V78.0518H345.8V80ZM356.149 80H349.259V78.5713C349.737 78.1611 350.216 77.751 350.694 77.3408C351.177 76.9307 351.626 76.5228 352.041 76.1172C352.916 75.2695 353.515 74.5973 353.839 74.1006C354.162 73.5993 354.324 73.0592 354.324 72.4805C354.324 71.9518 354.149 71.5394 353.798 71.2432C353.451 70.9424 352.966 70.792 352.342 70.792C351.927 70.792 351.478 70.8649 350.995 71.0107C350.512 71.1566 350.04 71.3799 349.58 71.6807H349.512V70.2451C349.835 70.0856 350.266 69.9398 350.804 69.8076C351.346 69.6755 351.87 69.6094 352.376 69.6094C353.42 69.6094 354.238 69.8623 354.83 70.3682C355.423 70.8695 355.719 71.5508 355.719 72.4121C355.719 72.7995 355.669 73.1618 355.568 73.499C355.473 73.8317 355.329 74.1484 355.138 74.4492C354.96 74.7318 354.75 75.0098 354.509 75.2832C354.272 75.5566 353.982 75.8597 353.641 76.1924C353.153 76.6709 352.649 77.1357 352.13 77.5869C351.61 78.0335 351.125 78.4482 350.674 78.8311H356.149V80ZM365.036 74.9072C365.036 76.7347 364.749 78.0768 364.175 78.9336C363.605 79.7858 362.719 80.2119 361.516 80.2119C360.294 80.2119 359.401 79.779 358.836 78.9131C358.275 78.0472 357.995 76.7165 357.995 74.9209C357.995 73.1117 358.28 71.7764 358.85 70.915C359.419 70.0492 360.308 69.6162 361.516 69.6162C362.737 69.6162 363.628 70.056 364.188 70.9355C364.754 71.8105 365.036 73.1344 365.036 74.9072ZM363.238 78.0107C363.398 77.6416 363.505 77.2087 363.56 76.7119C363.619 76.2106 363.648 75.609 363.648 74.9072C363.648 74.2145 363.619 73.613 363.56 73.1025C363.505 72.5921 363.396 72.1592 363.231 71.8037C363.072 71.4528 362.853 71.1885 362.575 71.0107C362.302 70.833 361.949 70.7441 361.516 70.7441C361.087 70.7441 360.732 70.833 360.449 71.0107C360.171 71.1885 359.95 71.4574 359.786 71.8174C359.631 72.1546 359.524 72.5944 359.465 73.1367C359.41 73.679 359.383 74.2738 359.383 74.9209C359.383 75.6318 359.408 76.2266 359.458 76.7051C359.508 77.1836 359.615 77.612 359.779 77.9902C359.93 78.3457 360.142 78.6169 360.415 78.8037C360.693 78.9906 361.06 79.084 361.516 79.084C361.944 79.084 362.299 78.9951 362.582 78.8174C362.865 78.6396 363.083 78.3708 363.238 78.0107Z" fill="#F0F4EF"/>
</svg>
